<?xml version="1.0" encoding="UTF-8"?>
<!DOCTYPE svg PUBLIC "-//W3C//DTD SVG 1.1//EN" "http://www.w3.org/Graphics/SVG/1.1/DTD/svg11.dtd">
<svg xmlns="http://www.w3.org/2000/svg" version="1.1" width="512px" height="512px" style="shape-rendering:geometricPrecision; text-rendering:geometricPrecision; image-rendering:optimizeQuality; fill-rule:evenodd; clip-rule:evenodd" xmlns:xlink="http://www.w3.org/1999/xlink">
<g><path style="opacity:0.97" fill="#f28d35" d="M 251.5,41.5 C 264.91,40.7662 273.41,46.7662 277,59.5C 277.906,70.5591 277.573,81.5591 276,92.5C 269.156,106.006 258.656,109.84 244.5,104C 238.648,100.474 235.148,95.307 234,88.5C 233.094,77.4409 233.427,66.4409 235,55.5C 238.283,48.1235 243.783,43.4568 251.5,41.5 Z"/></g>
<g><path style="opacity:0.975" fill="#f28d35" d="M 389.5,96.5 C 404.63,96.3026 413.297,103.636 415.5,118.5C 415.344,124.132 413.51,129.132 410,133.5C 404.167,139.333 398.333,145.167 392.5,151C 380.297,159.255 369.131,158.088 359,147.5C 354.397,139.151 354.397,130.818 359,122.5C 365.681,115.986 372.181,109.319 378.5,102.5C 381.823,99.6752 385.49,97.6752 389.5,96.5 Z"/></g>
<g><path style="opacity:0.976" fill="#f28e34" d="M 114.5,99.5 C 120.732,98.9386 126.732,99.772 132.5,102C 142.55,109.375 150.383,118.541 156,129.5C 158.161,142.683 152.995,151.517 140.5,156C 132.143,157.657 124.809,155.657 118.5,150C 112.634,144.469 107.134,138.635 102,132.5C 95.8821,117.329 100.049,106.329 114.5,99.5 Z"/></g>
<g><path style="opacity:1" fill="#f28d36" d="M 239.5,127.5 C 296.677,123.335 339.843,145.668 369,194.5C 384.441,225.548 387.775,257.882 379,291.5C 361.55,343.618 325.717,374.118 271.5,383C 214.402,387.491 171.236,365.324 142,316.5C 126.559,285.452 123.225,253.118 132,219.5C 149.618,167.371 185.452,136.704 239.5,127.5 Z"/></g>
<g><path style="opacity:1" fill="#fed79e" d="M 241.5,170.5 C 293.827,167.392 326.661,191.059 340,241.5C 344.01,285.424 326.176,316.59 286.5,335C 244.52,348.45 210.353,337.616 184,302.5C 168.804,276.628 166.471,249.628 177,221.5C 190.462,194.191 211.962,177.191 241.5,170.5 Z"/></g>
<g><path style="opacity:1" fill="#f28d35" d="M 249.5,191.5 C 280.258,190.453 302.091,203.786 315,231.5C 324.404,259.948 318.238,284.448 296.5,305C 282.898,315.312 267.564,319.978 250.5,319C 242.667,316.5 237.5,311.333 235,303.5C 234.333,271.167 234.333,238.833 235,206.5C 238.021,199.647 242.855,194.647 249.5,191.5 Z"/></g>
<g><path style="opacity:0.971" fill="#f28d35" d="M 59.5,233.5 C 69.1724,233.334 78.8391,233.5 88.5,234C 102.422,237.937 108.255,247.104 106,261.5C 103.313,270.186 97.4793,275.353 88.5,277C 78.8333,277.667 69.1667,277.667 59.5,277C 44.8025,272.447 39.3025,262.614 43,247.5C 46.2825,240.124 51.7825,235.457 59.5,233.5 Z"/></g>
<g><path style="opacity:0.97" fill="#f28d35" d="M 422.5,233.5 C 432.172,233.334 441.839,233.5 451.5,234C 466.198,238.553 471.698,248.386 468,263.5C 464.605,270.561 459.105,275.061 451.5,277C 441.833,277.667 432.167,277.667 422.5,277C 405.95,271.731 400.784,260.898 407,244.5C 410.746,238.72 415.913,235.054 422.5,233.5 Z"/></g>
<g><path style="opacity:0.975" fill="#f28d35" d="M 129.5,356.5 C 147.799,356.298 156.299,365.298 155,383.5C 153.861,387.112 152.194,390.446 150,393.5C 145.167,398.333 140.333,403.167 135.5,408C 126.037,413.564 116.37,413.897 106.5,409C 97.602,400.442 95.7687,390.608 101,379.5C 106.5,374 112,368.5 117.5,363C 121.157,360.008 125.157,357.841 129.5,356.5 Z"/></g>
<g><path style="opacity:0.975" fill="#f28d35" d="M 373.5,359.5 C 379.262,359.149 384.928,359.649 390.5,361C 397.698,367.864 404.532,375.03 411,382.5C 415.936,395.789 412.103,405.622 399.5,412C 393.415,412.861 387.415,412.527 381.5,411C 374,404.833 367.167,398 361,390.5C 356.271,376.62 360.437,366.287 373.5,359.5 Z"/></g>
<g><path style="opacity:0.969" fill="#f28d35" d="M 249.5,404.5 C 263.881,402.737 273.047,408.737 277,422.5C 277.906,433.559 277.573,444.559 276,455.5C 267.121,470.344 255.288,473.178 240.5,464C 237.15,460.468 234.984,456.301 234,451.5C 233.094,440.441 233.427,429.441 235,418.5C 237.774,411.557 242.607,406.89 249.5,404.5 Z"/></g>
</svg>
