<svg width="56" height="56" viewBox="0 0 56 56" fill="none" xmlns="http://www.w3.org/2000/svg">
<path opacity="0.97" fill-rule="evenodd" clip-rule="evenodd" d="M27.5094 3.53903C28.9761 3.45877 29.9058 4.11502 30.2985 5.50778C30.3976 6.71737 30.3612 7.92049 30.1891 9.11716C29.4405 10.5944 28.2921 11.0137 26.7438 10.375C26.1037 9.98931 25.7209 9.42417 25.5954 8.67966C25.4963 7.47007 25.5327 6.26694 25.7047 5.07028C26.0638 4.26348 26.6654 3.75306 27.5094 3.53903Z" fill="#FFB448"/>
<path opacity="0.975" fill-rule="evenodd" clip-rule="evenodd" d="M43.6022 9.55468C45.257 9.53309 46.205 10.3352 46.4459 11.9609C46.4289 12.5769 46.2283 13.1238 45.8444 13.6016C45.2064 14.2395 44.5683 14.8776 43.9303 15.5156C42.5956 16.4185 41.3743 16.2909 40.2663 15.1328C39.7628 14.2196 39.7628 13.3082 40.2663 12.3984C40.997 11.686 41.7079 10.9568 42.3991 10.2109C42.7625 9.90197 43.1636 9.68322 43.6022 9.55468Z" fill="#FFB448"/>
<path opacity="0.976" fill-rule="evenodd" clip-rule="evenodd" d="M11.5231 9.88273C12.2048 9.82133 12.861 9.91248 13.4919 10.1562C14.5911 10.9628 15.4478 11.9653 16.0622 13.164C16.2986 14.6059 15.7335 15.5721 14.3669 16.0624C13.4528 16.2437 12.6507 16.0249 11.9606 15.4062C11.319 14.8012 10.7175 14.1631 10.156 13.4921C9.48681 11.8328 9.94256 10.6297 11.5231 9.88273Z" fill="#FFB448"/>
<path fill-rule="evenodd" clip-rule="evenodd" d="M26.1697 13.9452C32.4103 13.4907 37.1217 15.928 40.304 21.2574C41.9893 24.6459 42.3532 28.1747 41.3955 31.8437C39.4909 37.5317 35.5799 40.8604 29.6623 41.8297C23.4304 42.3199 18.719 39.9006 15.528 34.5721C13.8427 31.1836 13.4788 27.6548 14.4366 23.9858C16.3595 18.2966 20.2706 14.9497 26.1697 13.9452Z" fill="#FFB448"/>
<path fill-rule="evenodd" clip-rule="evenodd" d="M26.3479 18.0318C32.5035 17.6669 36.3659 20.4454 37.9351 26.3672C38.4068 31.5238 36.3089 35.1827 31.6415 37.3441C26.7032 38.9231 22.6839 37.6512 19.5839 33.5286C17.7963 30.4912 17.5218 27.3214 18.7604 24.0192C20.344 20.8131 22.8732 18.8173 26.3479 18.0318Z" fill="#FFDC7C"/>
<path fill-rule="evenodd" clip-rule="evenodd" d="M27.2891 20.9453C30.6532 20.8308 33.0412 22.2891 34.4532 25.3203C35.4817 28.4318 34.8073 31.1115 32.4297 33.3593C30.942 34.4872 29.2648 34.9976 27.3985 34.8906C26.5417 34.6172 25.9766 34.052 25.7032 33.1953C25.6302 29.6589 25.6302 26.1223 25.7032 22.5859C26.0336 21.8364 26.5623 21.2895 27.2891 20.9453Z" fill="#FFB448"/>
<path opacity="0.971" fill-rule="evenodd" clip-rule="evenodd" d="M5.5067 25.5391C6.56462 25.5209 7.62191 25.5391 8.67857 25.5938C10.2013 26.0244 10.8393 27.027 10.5926 28.6016C10.2987 29.5516 9.66069 30.1168 8.67857 30.2969C7.62128 30.3699 6.564 30.3699 5.5067 30.2969C3.89916 29.7989 3.2976 28.7234 3.70201 27.0703C4.06104 26.2636 4.6626 25.7531 5.5067 25.5391Z" fill="#FFB448"/>
<path opacity="0.97" fill-rule="evenodd" clip-rule="evenodd" d="M47.2101 25.5391C48.268 25.5209 49.3253 25.5391 50.382 25.5938C51.9896 26.0918 52.5911 27.1672 52.1867 28.8203C51.8153 29.5926 51.2138 30.0848 50.382 30.2969C49.3247 30.3699 48.2674 30.3699 47.2101 30.2969C45.4 29.7206 44.8349 28.5357 45.5148 26.7422C45.9245 26.11 46.4897 25.7091 47.2101 25.5391Z" fill="#FFB448"/>
<path opacity="0.975" fill-rule="evenodd" clip-rule="evenodd" d="M13.1615 39.9922C15.163 39.9701 16.0927 40.9545 15.9506 42.9453C15.826 43.3404 15.6437 43.705 15.4037 44.0391C14.8751 44.5677 14.3464 45.0964 13.8178 45.625C12.7828 46.2336 11.7254 46.27 10.6459 45.7344C9.67267 44.7983 9.47216 43.7227 10.0443 42.5078C10.6459 41.9062 11.2475 41.3047 11.849 40.7031C12.249 40.3759 12.6865 40.1389 13.1615 39.9922Z" fill="#FFB448"/>
<path opacity="0.975" fill-rule="evenodd" clip-rule="evenodd" d="M41.8527 40.3203C42.4829 40.282 43.1027 40.3366 43.7121 40.4844C44.4994 41.2352 45.2468 42.0189 45.9543 42.836C46.4942 44.2895 46.0749 45.3649 44.6965 46.0625C44.0309 46.1567 43.3747 46.1202 42.7277 45.9532C41.9074 45.2786 41.16 44.5313 40.4855 43.711C39.9683 42.1928 40.424 41.0627 41.8527 40.3203Z" fill="#FFB448"/>
<path opacity="0.969" fill-rule="evenodd" clip-rule="evenodd" d="M27.2907 45.2422C28.8636 45.0494 29.8661 45.7056 30.2985 47.2109C30.3976 48.4205 30.3612 49.6236 30.1891 50.8203C29.218 52.4439 27.9237 52.7539 26.3063 51.75C25.9399 51.3637 25.703 50.9079 25.5954 50.3828C25.4963 49.1732 25.5327 47.9701 25.7047 46.7734C26.0081 46.0141 26.5367 45.5036 27.2907 45.2422Z" fill="#FFB448"/>
</svg>
