<svg width="165" height="122" viewBox="0 0 165 122" fill="none" xmlns="http://www.w3.org/2000/svg">
<path d="M20 1H83V102C83 112.493 74.4934 121 64 121H20C9.50659 121 1 112.493 1 102V20C1 9.50659 9.50659 1 20 1Z" fill="#454545" stroke="#5C5C5C" stroke-width="2"/>
<path d="M39 35H83V121H25V49C25 41.268 31.268 35 39 35Z" fill="#161616" stroke="#5C5C5C" stroke-width="2"/>
<path d="M43.0178 67H39.0632L45.0888 49.5455H49.8445L55.8615 67H51.907L47.5348 53.5341H47.3984L43.0178 67ZM42.7706 60.1392H52.1115V63.0199H42.7706V60.1392ZM61.6271 67.2472C60.7919 67.2472 60.0476 67.1023 59.3942 66.8125C58.7408 66.517 58.2237 66.0824 57.843 65.5085C57.468 64.929 57.2805 64.2074 57.2805 63.3438C57.2805 62.6165 57.4141 62.0057 57.6811 61.5114C57.9482 61.017 58.3118 60.6193 58.772 60.3182C59.2322 60.017 59.755 59.7898 60.3402 59.6364C60.9311 59.483 61.5504 59.375 62.1982 59.3125C62.9595 59.233 63.5732 59.1591 64.0391 59.0909C64.505 59.017 64.843 58.9091 65.0533 58.767C65.2635 58.625 65.3686 58.4148 65.3686 58.1364V58.0852C65.3686 57.5455 65.1982 57.1278 64.8572 56.8324C64.522 56.5369 64.0447 56.3892 63.4254 56.3892C62.772 56.3892 62.2521 56.5341 61.8658 56.8239C61.4794 57.108 61.2237 57.4659 61.0987 57.8977L57.7408 57.625C57.9112 56.8295 58.2464 56.142 58.7464 55.5625C59.2464 54.9773 59.8913 54.5284 60.6811 54.2159C61.4766 53.8977 62.397 53.7386 63.4425 53.7386C64.1697 53.7386 64.8658 53.8239 65.5305 53.9943C66.201 54.1648 66.7947 54.429 67.3118 54.7869C67.8345 55.1449 68.2464 55.6051 68.5476 56.1676C68.8487 56.7244 68.9993 57.392 68.9993 58.1705V67H65.5561V65.1847H65.4538C65.2436 65.5938 64.9624 65.9545 64.6101 66.267C64.2578 66.5739 63.8345 66.8153 63.3402 66.9915C62.8459 67.1619 62.2749 67.2472 61.6271 67.2472ZM62.6669 64.7415C63.201 64.7415 63.6726 64.6364 64.0817 64.4261C64.4908 64.2102 64.8118 63.9205 65.0447 63.5568C65.2777 63.1932 65.3942 62.7812 65.3942 62.321V60.9318C65.2805 61.0057 65.1243 61.0739 64.9254 61.1364C64.7322 61.1932 64.5135 61.2472 64.2692 61.2983C64.0249 61.3437 63.7805 61.3864 63.5362 61.4261C63.2919 61.4602 63.0703 61.4915 62.8714 61.5199C62.4453 61.5824 62.0732 61.6818 61.755 61.8182C61.4368 61.9545 61.1896 62.1392 61.0135 62.3722C60.8374 62.5994 60.7493 62.8835 60.7493 63.2244C60.7493 63.7188 60.9283 64.0966 61.2862 64.358C61.6499 64.6136 62.1101 64.7415 62.6669 64.7415Z" fill="white"/>
<path d="M83 1H145C155.493 1 164 9.50659 164 20V102C164 112.493 155.493 121 145 121H83V1Z" fill="#F3F3F3" stroke="#E5E5E5" stroke-width="2"/>
<path d="M120 35H164V102C164 112.493 155.493 121 145 121H106V49C106 41.268 112.268 35 120 35Z" fill="white" stroke="#E5E5E5" stroke-width="2"/>
<path d="M124.018 67H120.063L126.089 49.5455H130.844L136.862 67H132.907L128.535 53.5341H128.398L124.018 67ZM123.771 60.1392H133.112V63.0199H123.771V60.1392ZM142.627 67.2472C141.792 67.2472 141.048 67.1023 140.394 66.8125C139.741 66.517 139.224 66.0824 138.843 65.5085C138.468 64.929 138.281 64.2074 138.281 63.3438C138.281 62.6165 138.414 62.0057 138.681 61.5114C138.948 61.017 139.312 60.6193 139.772 60.3182C140.232 60.017 140.755 59.7898 141.34 59.6364C141.931 59.483 142.55 59.375 143.198 59.3125C143.96 59.233 144.573 59.1591 145.039 59.0909C145.505 59.017 145.843 58.9091 146.053 58.767C146.263 58.625 146.369 58.4148 146.369 58.1364V58.0852C146.369 57.5455 146.198 57.1278 145.857 56.8324C145.522 56.5369 145.045 56.3892 144.425 56.3892C143.772 56.3892 143.252 56.5341 142.866 56.8239C142.479 57.108 142.224 57.4659 142.099 57.8977L138.741 57.625C138.911 56.8295 139.246 56.142 139.746 55.5625C140.246 54.9773 140.891 54.5284 141.681 54.2159C142.477 53.8977 143.397 53.7386 144.442 53.7386C145.17 53.7386 145.866 53.8239 146.531 53.9943C147.201 54.1648 147.795 54.429 148.312 54.7869C148.835 55.1449 149.246 55.6051 149.548 56.1676C149.849 56.7244 149.999 57.392 149.999 58.1705V67H146.556V65.1847H146.454C146.244 65.5938 145.962 65.9545 145.61 66.267C145.258 66.5739 144.835 66.8153 144.34 66.9915C143.846 67.1619 143.275 67.2472 142.627 67.2472ZM143.667 64.7415C144.201 64.7415 144.673 64.6364 145.082 64.4261C145.491 64.2102 145.812 63.9205 146.045 63.5568C146.278 63.1932 146.394 62.7812 146.394 62.321V60.9318C146.281 61.0057 146.124 61.0739 145.925 61.1364C145.732 61.1932 145.513 61.2472 145.269 61.2983C145.025 61.3437 144.781 61.3864 144.536 61.4261C144.292 61.4602 144.07 61.4915 143.871 61.5199C143.445 61.5824 143.073 61.6818 142.755 61.8182C142.437 61.9545 142.19 62.1392 142.013 62.3722C141.837 62.5994 141.749 62.8835 141.749 63.2244C141.749 63.7188 141.928 64.0966 142.286 64.358C142.65 64.6136 143.11 64.7415 143.667 64.7415Z" fill="black"/>
<rect x="82" y="2" width="18" height="118" fill="#F3F3F3"/>
</svg>
