<svg width="160" height="122" viewBox="0 0 160 122" fill="none" xmlns="http://www.w3.org/2000/svg">
<path d="M20 1H96.6623L61.2525 121H20C9.50659 121 1 112.493 1 102V20C1 9.50659 9.50659 1 20 1Z" fill="#454545" stroke="#5C5C5C" stroke-width="2"/>
<path d="M41.7909 23.5C42.7035 23.5 43.998 22.6429 44.7909 22C45.4122 21.8667 46.3637 20.0681 46.2909 20C46.2747 19.9849 45.0938 20.436 44.7909 20.5C44.053 20.6559 43.0902 20.1639 42.2909 20C38.0099 19.1224 36.329 14.9095 38.291 11C38.4532 10.6769 38.8089 10.0179 38.791 10C38.7343 9.94325 37.4581 10.0761 36.9733 10.3862C36.289 10.824 35.2538 11.7948 34.79 12.5C32.5871 15.8492 33.6615 20.7435 37.2904 22.5C38.598 23.1329 40.3466 23.8045 41.7909 23.5Z" fill="#FFDC7C"/>
<path d="M33 16.5C32.9952 18.3378 33.6653 20.1133 34.8831 21.4897C36.101 22.866 37.7817 23.7473 39.6064 23.9662C41.4311 24.1852 43.2726 23.7266 44.7815 22.6775C46.2904 21.6283 47.3616 20.0617 47.7917 18.275C46.72 19.2814 45.3035 19.839 43.8334 19.8333C42.5577 19.8341 41.3169 19.4167 40.301 18.6451C39.2852 17.8734 38.5503 16.79 38.209 15.5608C37.8677 14.3316 37.9387 13.0244 38.4112 11.8395C38.8837 10.6545 39.7316 9.65708 40.825 9H40.5C39.5151 9 38.5398 9.19399 37.6299 9.5709C36.72 9.94781 35.8932 10.5003 35.1967 11.1967C34.5003 11.8931 33.9478 12.7199 33.5709 13.6299C33.194 14.5398 33 15.5151 33 16.5Z" stroke="#FFB448" stroke-width="1.66667" stroke-linecap="round" stroke-linejoin="round"/>
<path d="M37 35H86.6272L61.2524 121H23V49C23 41.268 29.268 35 37 35Z" fill="#161616" stroke="#5C5C5C" stroke-width="2"/>
<path d="M40.5256 67H36.571L42.5966 49.5455H47.3523L53.3693 67H49.4148L45.0426 53.5341H44.9062L40.5256 67ZM40.2784 60.1392H49.6193V63.0199H40.2784V60.1392ZM59.1349 67.2472C58.2997 67.2472 57.5554 67.1023 56.902 66.8125C56.2486 66.517 55.7315 66.0824 55.3509 65.5085C54.9759 64.929 54.7884 64.2074 54.7884 63.3438C54.7884 62.6165 54.9219 62.0057 55.1889 61.5114C55.456 61.017 55.8196 60.6193 56.2798 60.3182C56.7401 60.017 57.2628 59.7898 57.848 59.6364C58.4389 59.483 59.0582 59.375 59.706 59.3125C60.4673 59.233 61.081 59.1591 61.5469 59.0909C62.0128 59.017 62.3509 58.9091 62.5611 58.767C62.7713 58.625 62.8764 58.4148 62.8764 58.1364V58.0852C62.8764 57.5455 62.706 57.1278 62.3651 56.8324C62.0298 56.5369 61.5526 56.3892 60.9332 56.3892C60.2798 56.3892 59.7599 56.5341 59.3736 56.8239C58.9872 57.108 58.7315 57.4659 58.6065 57.8977L55.2486 57.625C55.419 56.8295 55.7543 56.142 56.2543 55.5625C56.7543 54.9773 57.3991 54.5284 58.1889 54.2159C58.9844 53.8977 59.9048 53.7386 60.9503 53.7386C61.6776 53.7386 62.3736 53.8239 63.0384 53.9943C63.7088 54.1648 64.3026 54.429 64.8196 54.7869C65.3423 55.1449 65.7543 55.6051 66.0554 56.1676C66.3565 56.7244 66.5071 57.392 66.5071 58.1705V67H63.0639V65.1847H62.9616C62.7514 65.5938 62.4702 65.9545 62.1179 66.267C61.7656 66.5739 61.3423 66.8153 60.848 66.9915C60.3537 67.1619 59.7827 67.2472 59.1349 67.2472ZM60.1747 64.7415C60.7088 64.7415 61.1804 64.6364 61.5895 64.4261C61.9986 64.2102 62.3196 63.9205 62.5526 63.5568C62.7855 63.1932 62.902 62.7812 62.902 62.321V60.9318C62.7884 61.0057 62.6321 61.0739 62.4332 61.1364C62.2401 61.1932 62.0213 61.2472 61.777 61.2983C61.5327 61.3437 61.2884 61.3864 61.044 61.4261C60.7997 61.4602 60.5781 61.4915 60.3793 61.5199C59.9531 61.5824 59.581 61.6818 59.2628 61.8182C58.9446 61.9545 58.6974 62.1392 58.5213 62.3722C58.3452 62.5994 58.2571 62.8835 58.2571 63.2244C58.2571 63.7188 58.4361 64.0966 58.794 64.358C59.1577 64.6136 59.6179 64.7415 60.1747 64.7415Z" fill="white"/>
<path d="M73 2H97.4102L87.9688 34H73V2Z" fill="#454545"/>
<path d="M63.3377 121L98.7475 1H140C150.493 1 159 9.50659 159 20V102C159 112.493 150.493 121 140 121H63.3377Z" fill="#F3F3F3" stroke="#E5E5E5" stroke-width="2"/>
<path d="M112.41 34H87.9727L97.4102 2H112.41V34Z" fill="#F3F3F3"/>
<path d="M80.5 120H62.5898L72.0391 88H87.4375L85.5 103.5L80.5 120Z" fill="#F3F3F3"/>
<path d="M90.9102 88H72.0302L87.9648 34H103L95.9102 71.5L90.9102 88Z" fill="#F3F3F3"/>
<path d="M119.209 35H159V102C159 112.493 150.493 121 140 121H83.3382L105.783 45.0332C107.541 39.0833 113.005 35 119.209 35Z" fill="white" stroke="#E5E5E5" stroke-width="2"/>
<path d="M118.526 67H114.571L120.597 49.5455H125.352L131.369 67H127.415L123.043 53.5341H122.906L118.526 67ZM118.278 60.1392H127.619V63.0199H118.278V60.1392ZM137.135 67.2472C136.3 67.2472 135.555 67.1023 134.902 66.8125C134.249 66.517 133.732 66.0824 133.351 65.5085C132.976 64.929 132.788 64.2074 132.788 63.3438C132.788 62.6165 132.922 62.0057 133.189 61.5114C133.456 61.017 133.82 60.6193 134.28 60.3182C134.74 60.017 135.263 59.7898 135.848 59.6364C136.439 59.483 137.058 59.375 137.706 59.3125C138.467 59.233 139.081 59.1591 139.547 59.0909C140.013 59.017 140.351 58.9091 140.561 58.767C140.771 58.625 140.876 58.4148 140.876 58.1364V58.0852C140.876 57.5455 140.706 57.1278 140.365 56.8324C140.03 56.5369 139.553 56.3892 138.933 56.3892C138.28 56.3892 137.76 56.5341 137.374 56.8239C136.987 57.108 136.732 57.4659 136.607 57.8977L133.249 57.625C133.419 56.8295 133.754 56.142 134.254 55.5625C134.754 54.9773 135.399 54.5284 136.189 54.2159C136.984 53.8977 137.905 53.7386 138.95 53.7386C139.678 53.7386 140.374 53.8239 141.038 53.9943C141.709 54.1648 142.303 54.429 142.82 54.7869C143.342 55.1449 143.754 55.6051 144.055 56.1676C144.357 56.7244 144.507 57.392 144.507 58.1705V67H141.064V65.1847H140.962C140.751 65.5938 140.47 65.9545 140.118 66.267C139.766 66.5739 139.342 66.8153 138.848 66.9915C138.354 67.1619 137.783 67.2472 137.135 67.2472ZM138.175 64.7415C138.709 64.7415 139.18 64.6364 139.589 64.4261C139.999 64.2102 140.32 63.9205 140.553 63.5568C140.786 63.1932 140.902 62.7812 140.902 62.321V60.9318C140.788 61.0057 140.632 61.0739 140.433 61.1364C140.24 61.1932 140.021 61.2472 139.777 61.2983C139.533 61.3437 139.288 61.3864 139.044 61.4261C138.8 61.4602 138.578 61.4915 138.379 61.5199C137.953 61.5824 137.581 61.6818 137.263 61.8182C136.945 61.9545 136.697 62.1392 136.521 62.3722C136.345 62.5994 136.257 62.8835 136.257 63.2244C136.257 63.7188 136.436 64.0966 136.794 64.358C137.158 64.6136 137.618 64.7415 138.175 64.7415Z" fill="black"/>
<path d="M117 21C116.562 20.9578 116.445 20.4135 116.088 20.1818C115.076 19.5256 114.262 18.1723 114.501 17C114.654 16.248 115.422 15.3158 116.088 14.9028C117.23 14.1947 119.065 14.5264 120 15.5C121.16 16.7086 121.29 18.9239 120 20C119.429 20.4761 117.738 21.0711 117 21Z" fill="#FFDC7C"/>
<path d="M117.625 9V9.95833M117.625 25.2917V26.25M109.958 17.625H109M112.176 12.176L111.396 11.3958M123.074 12.176L123.854 11.3958M112.176 23.0779L111.396 23.8543M123.074 23.0779L123.854 23.8543M126.25 17.625H125.292M121.458 17.625C121.458 19.7421 119.742 21.4583 117.625 21.4583C115.508 21.4583 113.792 19.7421 113.792 17.625C113.792 15.5079 115.508 13.7917 117.625 13.7917C119.742 13.7917 121.458 15.5079 121.458 17.625Z" stroke="#FFB448" stroke-width="1.91667" stroke-linecap="round" stroke-linejoin="round"/>
</svg>
