<svg width="160" height="122" viewBox="0 0 160 122" fill="none" xmlns="http://www.w3.org/2000/svg">
<rect x="1" y="1" width="158" height="120" rx="19" fill="#454545" stroke="#5C5C5C" stroke-width="2"/>
<path d="M139.697 120.5H36V49C36 41.268 42.268 35 50 35H158.697V101.5C158.697 111.993 150.191 120.5 139.697 120.5Z" fill="#161616" stroke="#5C5C5C" stroke-width="2"/>
<path d="M53.5256 67H49.571L55.5966 49.5455H60.3523L66.3693 67H62.4148L58.0426 53.5341H57.9062L53.5256 67ZM53.2784 60.1392H62.6193V63.0199H53.2784V60.1392ZM72.1349 67.2472C71.2997 67.2472 70.5554 67.1023 69.902 66.8125C69.2486 66.517 68.7315 66.0824 68.3509 65.5085C67.9759 64.929 67.7884 64.2074 67.7884 63.3438C67.7884 62.6165 67.9219 62.0057 68.1889 61.5114C68.456 61.017 68.8196 60.6193 69.2798 60.3182C69.7401 60.017 70.2628 59.7898 70.848 59.6364C71.4389 59.483 72.0582 59.375 72.706 59.3125C73.4673 59.233 74.081 59.1591 74.5469 59.0909C75.0128 59.017 75.3509 58.9091 75.5611 58.767C75.7713 58.625 75.8764 58.4148 75.8764 58.1364V58.0852C75.8764 57.5455 75.706 57.1278 75.3651 56.8324C75.0298 56.5369 74.5526 56.3892 73.9332 56.3892C73.2798 56.3892 72.7599 56.5341 72.3736 56.8239C71.9872 57.108 71.7315 57.4659 71.6065 57.8977L68.2486 57.625C68.419 56.8295 68.7543 56.142 69.2543 55.5625C69.7543 54.9773 70.3991 54.5284 71.1889 54.2159C71.9844 53.8977 72.9048 53.7386 73.9503 53.7386C74.6776 53.7386 75.3736 53.8239 76.0384 53.9943C76.7088 54.1648 77.3026 54.429 77.8196 54.7869C78.3423 55.1449 78.7543 55.6051 79.0554 56.1676C79.3565 56.7244 79.5071 57.392 79.5071 58.1705V67H76.0639V65.1847H75.9616C75.7514 65.5938 75.4702 65.9545 75.1179 66.267C74.7656 66.5739 74.3423 66.8153 73.848 66.9915C73.3537 67.1619 72.7827 67.2472 72.1349 67.2472ZM73.1747 64.7415C73.7088 64.7415 74.1804 64.6364 74.5895 64.4261C74.9986 64.2102 75.3196 63.9205 75.5526 63.5568C75.7855 63.1932 75.902 62.7812 75.902 62.321V60.9318C75.7884 61.0057 75.6321 61.0739 75.4332 61.1364C75.2401 61.1932 75.0213 61.2472 74.777 61.2983C74.5327 61.3437 74.2884 61.3864 74.044 61.4261C73.7997 61.4602 73.5781 61.4915 73.3793 61.5199C72.9531 61.5824 72.581 61.6818 72.2628 61.8182C71.9446 61.9545 71.6974 62.1392 71.5213 62.3722C71.3452 62.5994 71.2571 62.8835 71.2571 63.2244C71.2571 63.7188 71.4361 64.0966 71.794 64.358C72.1577 64.6136 72.6179 64.7415 73.1747 64.7415Z" fill="white"/>
</svg>
