<svg width="165" height="122" viewBox="0 0 165 122" fill="none" xmlns="http://www.w3.org/2000/svg">
<path d="M20 1.00049H100.63L62.2698 121H20C9.50659 121 1 112.494 1 102V20.0005C1 9.50708 9.50659 1.00049 20 1.00049Z" fill="#454545" stroke="#5C5C5C" stroke-width="2"/>
<path d="M50.5003 17.0005C50.5003 18.9896 49.7101 20.8972 48.3036 22.3038C46.8971 23.7103 44.9894 24.5005 43.0003 24.5005C42.0105 24.5027 41.0303 24.307 40.1173 23.9249C39.2042 23.5428 37.5232 21.1112 36.8301 20.4047C37.722 20.7781 39.4802 20.8352 40.4471 20.8303C41.9275 20.829 42.6202 19.7375 43.8514 18.9154C45.0825 18.0932 44.985 17.9418 45.5535 16.5749C46.122 15.208 46.264 15.2617 45.979 13.809C45.694 12.3563 45.5325 11.2427 44.4897 10.192C45.8734 10.7527 48.3856 11.5721 49.22 12.8103C50.0543 14.0484 50.5001 15.5074 50.5003 17.0005Z" fill="#FFEEBE"/>
<path d="M50.3444 17.0005C50.3492 18.8382 49.6791 20.6138 48.4613 21.9901C47.2435 23.3665 45.5627 24.2478 43.738 24.4667C41.9133 24.6857 40.0718 24.2271 38.5629 23.1779C37.054 22.1288 35.9829 20.5622 35.5527 18.7755C36.6244 19.7819 38.0409 20.3395 39.5111 20.3338C40.7868 20.3346 42.0276 19.9172 43.0434 19.1456C44.0592 18.3739 44.7941 17.2905 45.1354 16.0613C45.4768 14.8321 45.4057 13.5249 44.9333 12.34C44.4608 11.155 43.6129 10.1576 42.5194 9.50049H42.8444C44.8335 9.50049 46.7412 10.2907 48.1477 11.6972C49.5542 13.1037 50.3444 15.0114 50.3444 17.0005Z" stroke="#FFB448" stroke-width="1.66667" stroke-linecap="round" stroke-linejoin="round"/>
<path d="M39 35.0005H89.6281L61.9822 121H25V49.0005C25 41.2685 31.268 35.0005 39 35.0005Z" fill="#161616" stroke="#5C5C5C" stroke-width="2"/>
<path d="M43.0178 67.0005H39.0632L45.0888 49.5459H49.8445L55.8615 67.0005H51.907L47.5348 53.5346H47.3984L43.0178 67.0005ZM42.7706 60.1397H52.1115V63.0204H42.7706V60.1397ZM61.6271 67.2476C60.7919 67.2476 60.0476 67.1028 59.3942 66.813C58.7408 66.5175 58.2237 66.0829 57.843 65.509C57.468 64.9295 57.2805 64.2079 57.2805 63.3442C57.2805 62.617 57.4141 62.0062 57.6811 61.5119C57.9482 61.0175 58.3118 60.6198 58.772 60.3187C59.2322 60.0175 59.755 59.7903 60.3402 59.6369C60.9311 59.4834 61.5504 59.3755 62.1982 59.313C62.9595 59.2334 63.5732 59.1596 64.0391 59.0914C64.505 59.0175 64.843 58.9096 65.0533 58.7675C65.2635 58.6255 65.3686 58.4153 65.3686 58.1369V58.0857C65.3686 57.5459 65.1982 57.1283 64.8572 56.8329C64.522 56.5374 64.0447 56.3897 63.4254 56.3897C62.772 56.3897 62.2521 56.5346 61.8658 56.8244C61.4794 57.1084 61.2237 57.4664 61.0987 57.8982L57.7408 57.6255C57.9112 56.83 58.2464 56.1425 58.7464 55.563C59.2464 54.9778 59.8913 54.5289 60.6811 54.2164C61.4766 53.8982 62.397 53.7391 63.4425 53.7391C64.1697 53.7391 64.8658 53.8244 65.5305 53.9948C66.201 54.1653 66.7947 54.4295 67.3118 54.7874C67.8345 55.1454 68.2464 55.6056 68.5476 56.1681C68.8487 56.7249 68.9993 57.3925 68.9993 58.1709V67.0005H65.5561V65.1851H65.4538C65.2436 65.5942 64.9624 65.955 64.6101 66.2675C64.2578 66.5744 63.8345 66.8158 63.3402 66.992C62.8459 67.1624 62.2749 67.2476 61.6271 67.2476ZM62.6669 64.742C63.201 64.742 63.6726 64.6369 64.0817 64.4266C64.4908 64.2107 64.8118 63.9209 65.0447 63.5573C65.2777 63.1937 65.3942 62.7817 65.3942 62.3215V60.9323C65.2805 61.0062 65.1243 61.0744 64.9254 61.1369C64.7322 61.1937 64.5135 61.2476 64.2692 61.2988C64.0249 61.3442 63.7805 61.3869 63.5362 61.4266C63.2919 61.4607 63.0703 61.492 62.8714 61.5204C62.4453 61.5829 62.0732 61.6823 61.755 61.8187C61.4368 61.955 61.1896 62.1397 61.0135 62.3726C60.8374 62.5999 60.7493 62.884 60.7493 63.2249C60.7493 63.7192 60.9283 64.0971 61.2862 64.3584C61.6499 64.6141 62.1101 64.742 62.6669 64.742Z" fill="white"/>
<path d="M64.3695 121.001L102.73 1.00073H145C155.493 1.00073 164 9.50732 164 20.0007V102.001C164 112.494 155.493 121.001 145 121.001H64.3695Z" fill="#F3F3F3" stroke="#E5E5E5" stroke-width="2"/>
<path d="M122.528 35.001H164V102.001C164 112.494 155.493 121.001 145 121.001H85.3602L109.165 44.8251C110.992 38.9805 116.404 35.001 122.528 35.001Z" fill="white" stroke="#E5E5E5" stroke-width="2"/>
<path d="M124.018 67.001H120.063L126.089 49.5464H130.844L136.862 67.001H132.907L128.535 53.5351H128.398L124.018 67.001ZM123.771 60.1402H133.112V63.0209H123.771V60.1402ZM142.627 67.2481C141.792 67.2481 141.048 67.1032 140.394 66.8135C139.741 66.518 139.224 66.0834 138.843 65.5095C138.468 64.93 138.281 64.2084 138.281 63.3447C138.281 62.6175 138.414 62.0067 138.681 61.5123C138.948 61.018 139.312 60.6203 139.772 60.3192C140.232 60.018 140.755 59.7907 141.34 59.6373C141.931 59.4839 142.55 59.376 143.198 59.3135C143.96 59.2339 144.573 59.1601 145.039 59.0919C145.505 59.018 145.843 58.9101 146.053 58.768C146.263 58.626 146.369 58.4157 146.369 58.1373V58.0862C146.369 57.5464 146.198 57.1288 145.857 56.8334C145.522 56.5379 145.045 56.3902 144.425 56.3902C143.772 56.3902 143.252 56.5351 142.866 56.8248C142.479 57.1089 142.224 57.4669 142.099 57.8987L138.741 57.626C138.911 56.8305 139.246 56.143 139.746 55.5635C140.246 54.9782 140.891 54.5294 141.681 54.2169C142.477 53.8987 143.397 53.7396 144.442 53.7396C145.17 53.7396 145.866 53.8248 146.531 53.9953C147.201 54.1657 147.795 54.43 148.312 54.7879C148.835 55.1459 149.246 55.6061 149.548 56.1686C149.849 56.7254 149.999 57.393 149.999 58.1714V67.001H146.556V65.1856H146.454C146.244 65.5947 145.962 65.9555 145.61 66.268C145.258 66.5748 144.835 66.8163 144.34 66.9925C143.846 67.1629 143.275 67.2481 142.627 67.2481ZM143.667 64.7425C144.201 64.7425 144.673 64.6373 145.082 64.4271C145.491 64.2112 145.812 63.9214 146.045 63.5578C146.278 63.1942 146.394 62.7822 146.394 62.322V60.9328C146.281 61.0067 146.124 61.0748 145.925 61.1373C145.732 61.1942 145.513 61.2481 145.269 61.2993C145.025 61.3447 144.781 61.3873 144.536 61.4271C144.292 61.4612 144.07 61.4925 143.871 61.5209C143.445 61.5834 143.073 61.6828 142.755 61.8192C142.437 61.9555 142.19 62.1402 142.013 62.3731C141.837 62.6004 141.749 62.8845 141.749 63.2254C141.749 63.7197 141.928 64.0976 142.286 64.3589C142.65 64.6146 143.11 64.7425 143.667 64.7425Z" fill="black"/>
<path d="M101.359 2.00024L109 4.50024L71.9999 120.001L64.27 118L101.359 2.00024Z" fill="#F3F3F3"/>
<path d="M65.5403 113.999L68.0018 113.999L68.4999 120L63.6419 119.999L65.5403 113.999Z" fill="#F3F3F3"/>
<path d="M90.002 1.99945L100.24 5.50018L91.1319 33.9995L80.9506 33.9995L90.002 1.99945Z" fill="#454545"/>
<path d="M93.0014 2.00004L101.36 2.00004L99.44 8.00004L92.9999 8.00006L93.0014 2.00004Z" fill="#454545"/>
<path d="M101.37 2L109.859 2.00001L107.939 8L101.498 8.00003L101.37 2Z" fill="#F3F3F3"/>
<path d="M124.703 18.5716C124.703 19.9561 124.289 19.6807 123.31 20.6598C122.331 21.6388 121.215 22.0519 119.83 22.0519C119.141 22.0535 118.396 20.3392 117.761 20.0732C117.125 19.8073 116.832 19.0633 116.35 18.5715C116.97 18.8314 116.888 15.2567 117.561 15.2533C118.591 15.2524 118.444 14.5667 119.301 13.9944C120.158 13.4222 119.83 14.047 120.874 13.699C121.27 12.7475 122.039 14.043 121.841 13.0318C121.222 13.0029 123.688 14.7784 122.962 14.047C123.926 14.4373 123.774 14.9254 124.355 15.7872C124.935 16.6491 124.702 17.5323 124.703 18.5716Z" fill="#FFEEBE"/>
<path d="M120.875 9.00049V9.9866M120.875 25.7644V26.7505M112.986 17.8755H112M115.268 12.2686L114.465 11.4658M126.482 12.2686L127.285 11.4658M115.268 23.4865L114.465 24.2853M126.482 23.4865L127.285 24.2853M129.75 17.8755H128.764M124.819 17.8755C124.819 20.0539 123.053 21.8199 120.875 21.8199C118.697 21.8199 116.931 20.0539 116.931 17.8755C116.931 15.697 118.697 13.931 120.875 13.931C123.053 13.931 124.819 15.697 124.819 17.8755Z" stroke="#FFB448" stroke-width="1.97222" stroke-linecap="round" stroke-linejoin="round"/>
</svg>
