<svg width="160" height="122" viewBox="0 0 160 122" fill="none" xmlns="http://www.w3.org/2000/svg">
<path d="M1 20C1 9.50659 9.50659 1 20 1H79V102C79 112.493 70.4934 121 60 121H20C9.50659 121 1 112.493 1 102V20Z" fill="#454545" stroke="#5C5C5C" stroke-width="2"/>
<path d="M23 49C23 41.268 29.268 35 37 35H79V121H23V49Z" fill="#161616" stroke="#5C5C5C" stroke-width="2"/>
<path d="M40.5256 67H36.571L42.5966 49.5455H47.3523L53.3693 67H49.4148L45.0426 53.5341H44.9062L40.5256 67ZM40.2784 60.1392H49.6193V63.0199H40.2784V60.1392ZM59.1349 67.2472C58.2997 67.2472 57.5554 67.1023 56.902 66.8125C56.2486 66.517 55.7315 66.0824 55.3509 65.5085C54.9759 64.929 54.7884 64.2074 54.7884 63.3438C54.7884 62.6165 54.9219 62.0057 55.1889 61.5114C55.456 61.017 55.8196 60.6193 56.2798 60.3182C56.7401 60.017 57.2628 59.7898 57.848 59.6364C58.4389 59.483 59.0582 59.375 59.706 59.3125C60.4673 59.233 61.081 59.1591 61.5469 59.0909C62.0128 59.017 62.3509 58.9091 62.5611 58.767C62.7713 58.625 62.8764 58.4148 62.8764 58.1364V58.0852C62.8764 57.5455 62.706 57.1278 62.3651 56.8324C62.0298 56.5369 61.5526 56.3892 60.9332 56.3892C60.2798 56.3892 59.7599 56.5341 59.3736 56.8239C58.9872 57.108 58.7315 57.4659 58.6065 57.8977L55.2486 57.625C55.419 56.8295 55.7543 56.142 56.2543 55.5625C56.7543 54.9773 57.3991 54.5284 58.1889 54.2159C58.9844 53.8977 59.9048 53.7386 60.9503 53.7386C61.6776 53.7386 62.3736 53.8239 63.0384 53.9943C63.7088 54.1648 64.3026 54.429 64.8196 54.7869C65.3423 55.1449 65.7543 55.6051 66.0554 56.1676C66.3565 56.7244 66.5071 57.392 66.5071 58.1705V67H63.0639V65.1847H62.9616C62.7514 65.5938 62.4702 65.9545 62.1179 66.267C61.7656 66.5739 61.3423 66.8153 60.848 66.9915C60.3537 67.1619 59.7827 67.2472 59.1349 67.2472ZM60.1747 64.7415C60.7088 64.7415 61.1804 64.6364 61.5895 64.4261C61.9986 64.2102 62.3196 63.9205 62.5526 63.5568C62.7855 63.1932 62.902 62.7812 62.902 62.321V60.9318C62.7884 61.0057 62.6321 61.0739 62.4332 61.1364C62.2401 61.1932 62.0213 61.2472 61.777 61.2983C61.5327 61.3437 61.2884 61.3864 61.044 61.4261C60.7997 61.4602 60.5781 61.4915 60.3793 61.5199C59.9531 61.5824 59.581 61.6818 59.2628 61.8182C58.9446 61.9545 58.6974 62.1392 58.5213 62.3722C58.3452 62.5994 58.2571 62.8835 58.2571 63.2244C58.2571 63.7188 58.4361 64.0966 58.794 64.358C59.1577 64.6136 59.6179 64.7415 60.1747 64.7415Z" fill="white"/>
<rect x="65" y="2" width="15" height="32" fill="#454545"/>
<path d="M81 1H140C150.493 1 159 9.50659 159 20V102C159 112.493 150.493 121 140 121H81V1Z" fill="#F3F3F3" stroke="#E5E5E5" stroke-width="2"/>
<path d="M102 49C102 41.268 108.268 35 116 35H159V102C159 112.493 150.493 121 140 121H102V49Z" fill="white" stroke="#E5E5E5" stroke-width="2"/>
<path d="M119.526 67H115.571L121.597 49.5455H126.352L132.369 67H128.415L124.043 53.5341H123.906L119.526 67ZM119.278 60.1392H128.619V63.0199H119.278V60.1392ZM138.135 67.2472C137.3 67.2472 136.555 67.1023 135.902 66.8125C135.249 66.517 134.732 66.0824 134.351 65.5085C133.976 64.929 133.788 64.2074 133.788 63.3438C133.788 62.6165 133.922 62.0057 134.189 61.5114C134.456 61.017 134.82 60.6193 135.28 60.3182C135.74 60.017 136.263 59.7898 136.848 59.6364C137.439 59.483 138.058 59.375 138.706 59.3125C139.467 59.233 140.081 59.1591 140.547 59.0909C141.013 59.017 141.351 58.9091 141.561 58.767C141.771 58.625 141.876 58.4148 141.876 58.1364V58.0852C141.876 57.5455 141.706 57.1278 141.365 56.8324C141.03 56.5369 140.553 56.3892 139.933 56.3892C139.28 56.3892 138.76 56.5341 138.374 56.8239C137.987 57.108 137.732 57.4659 137.607 57.8977L134.249 57.625C134.419 56.8295 134.754 56.142 135.254 55.5625C135.754 54.9773 136.399 54.5284 137.189 54.2159C137.984 53.8977 138.905 53.7386 139.95 53.7386C140.678 53.7386 141.374 53.8239 142.038 53.9943C142.709 54.1648 143.303 54.429 143.82 54.7869C144.342 55.1449 144.754 55.6051 145.055 56.1676C145.357 56.7244 145.507 57.392 145.507 58.1705V67H142.064V65.1847H141.962C141.751 65.5938 141.47 65.9545 141.118 66.267C140.766 66.5739 140.342 66.8153 139.848 66.9915C139.354 67.1619 138.783 67.2472 138.135 67.2472ZM139.175 64.7415C139.709 64.7415 140.18 64.6364 140.589 64.4261C140.999 64.2102 141.32 63.9205 141.553 63.5568C141.786 63.1932 141.902 62.7812 141.902 62.321V60.9318C141.788 61.0057 141.632 61.0739 141.433 61.1364C141.24 61.1932 141.021 61.2472 140.777 61.2983C140.533 61.3437 140.288 61.3864 140.044 61.4261C139.8 61.4602 139.578 61.4915 139.379 61.5199C138.953 61.5824 138.581 61.6818 138.263 61.8182C137.945 61.9545 137.697 62.1392 137.521 62.3722C137.345 62.5994 137.257 62.8835 137.257 63.2244C137.257 63.7188 137.436 64.0966 137.794 64.358C138.158 64.6136 138.618 64.7415 139.175 64.7415Z" fill="black"/>
<rect x="80" y="2" width="4" height="118" fill="#F3F3F3"/>
</svg>
