<svg width="56" height="56" viewBox="0 0 56 56" fill="none" xmlns="http://www.w3.org/2000/svg">
<path opacity="0.988" fill-rule="evenodd" clip-rule="evenodd" d="M27.5067 4.53903C28.9734 4.45877 29.9031 5.11502 30.2957 6.50778C30.3687 8.36716 30.3687 10.2265 30.2957 12.0859C29.8001 13.6013 28.7611 14.2029 27.1785 13.8906C26.3372 13.56 25.8086 12.9584 25.5926 12.0859C25.489 10.075 25.5255 8.06975 25.702 6.07028C26.061 5.26348 26.6626 4.75306 27.5067 4.53903Z" fill="#FFCE28"/>
<path opacity="0.984" fill-rule="evenodd" clip-rule="evenodd" d="M12.5212 10.8829C13.2028 10.8215 13.8591 10.9126 14.4899 11.1563C15.781 12.3379 17.0388 13.5593 18.2634 14.8204C19.2667 16.5852 18.8474 17.8796 17.0056 18.7032C16.3632 18.8072 15.7434 18.7343 15.1462 18.4844C13.7426 17.2266 12.4118 15.8958 11.154 14.4922C10.4849 12.8329 10.9406 11.6298 12.5212 10.8829Z" fill="#FFCE28"/>
<path opacity="0.993" fill-rule="evenodd" clip-rule="evenodd" d="M37.4609 34.8359C30.9451 32.9663 27.7915 28.6278 27.9999 21.8203C28.2896 19.8571 29.0005 18.0706 30.1327 16.4609C32.665 13.0246 36.092 11.3839 40.414 11.539C38.838 15.7968 39.8588 19.2785 43.4765 21.9844C46.0173 23.4577 48.6423 23.6218 51.3515 22.4765C51.4287 27.1534 49.5329 30.7811 45.664 33.3594C43.1025 34.795 40.3682 35.2872 37.4609 34.8359Z" fill="#FFA500"/>
<path opacity="0.995" fill-rule="evenodd" clip-rule="evenodd" d="M30.1343 16.4609C29.002 18.0706 28.2911 19.8571 28.0015 21.8203C27.793 28.6278 30.9466 32.9663 37.4624 34.8359C34.0767 39.0574 29.7382 40.4975 24.4468 39.1562C19.7549 37.4837 17.0388 34.1842 16.2983 29.2578C15.9933 23.4305 18.4907 19.329 23.7905 16.9531C25.8671 16.2258 27.9817 16.0617 30.1343 16.4609Z" fill="#FFCD28"/>
<path opacity="0.987" fill-rule="evenodd" clip-rule="evenodd" d="M6.5088 25.539C8.36854 25.5208 10.2279 25.539 12.0869 25.5937C13.6023 26.0893 14.2039 27.1283 13.8916 28.7109C13.561 29.5522 12.9594 30.0808 12.0869 30.2968C10.076 30.4004 8.07078 30.3639 6.0713 30.1875C4.7682 29.531 4.31248 28.4919 4.70412 27.0703C5.06314 26.2635 5.6647 25.7531 6.5088 25.539Z" fill="#FFCE28"/>
<path opacity="0.983" fill-rule="evenodd" clip-rule="evenodd" d="M15.6947 37.1328C17.1169 36.9231 18.1195 37.47 18.7025 38.7734C18.8719 39.6068 18.7261 40.3724 18.265 41.0703C17.004 42.3678 15.7098 43.6256 14.3822 44.8438C12.7837 45.5469 11.5988 45.1277 10.8275 43.5859C10.5792 42.5978 10.798 41.7228 11.4837 40.9609C12.5958 39.8489 13.7077 38.737 14.8197 37.625C15.1039 37.4287 15.3957 37.2646 15.6947 37.1328Z" fill="#FFCE28"/>
<path opacity="0.985" fill-rule="evenodd" clip-rule="evenodd" d="M38.7735 37.1328C39.6074 37.0179 40.373 37.1819 41.0704 37.625C42.3679 38.886 43.6257 40.1802 44.8439 41.5078C45.555 43.0924 45.1357 44.2774 43.586 45.0625C42.8692 45.1807 42.1764 45.1078 41.5079 44.8437C40.1803 43.6256 38.8861 42.3678 37.6251 41.0703C36.6552 39.3542 37.038 38.0417 38.7735 37.1328Z" fill="#FFCE28"/>
<path opacity="0.987" fill-rule="evenodd" clip-rule="evenodd" d="M27.1817 41.9455C28.7631 41.687 29.8022 42.3068 30.2989 43.8048C30.4024 45.8158 30.3659 47.821 30.1895 49.8205C29.2183 51.444 27.9241 51.754 26.3067 50.7502C25.9403 50.3638 25.7034 49.9081 25.5957 49.383C25.5228 47.5236 25.5228 45.6642 25.5957 43.8048C25.833 42.9301 26.3617 42.3102 27.1817 41.9455Z" fill="#FFCE28"/>
</svg>
